# xmcd
#
# Track frame offsets:
#	150
#	6505
#	17480
#	21982
#	33025
#	39092
#	55582
#	70612
#	81030
#	91760
#	101952
#	112687
#	120560
#	141012
#	153385
#	167205
#
# Disc length: 2414
#
# Revision: 3
# Processed by: cddbd v1.5.1PL0 Copyright (c) Steve Scherf et al.
# Submitted via: CDex 1.51
# Normalized: r2:TDELIM( - )
#
DISCID=b4096c10
DTITLE=Tammy Wynette and Country Girls - A Country Girl
DYEAR=1991
DGENRE=Country
TTITLE0=Tammy Wynette - Welcome To My World
TTITLE1=Tammy Wynette - Another Chance
TTITLE2=Tammy Wynette - Your Good Girls Gonna Ga Bad
TTITLE3=Tammy Wynette - D.I.V.O.R.C.E
TTITLE4=Tammy Wynette - Singing My Song
TTITLE5=Tammy Wynette - Till I Can Make It On My Own
TTITLE6=Barbara Fairchild - Rocky Top
TTITLE7=Dottie West - Ain't Nothing Like A Woman
TTITLE8=Stella Parton - Standard Lie
TTITLE9=Tammy Wynette - Womanhood
TTITLE10=Tammy Wynette - Fairy Tails
TTITLE11=Tammy Wynette - When Grass Grows Over Me
TTITLE12=Tammy Wynette - Medley
TTITLE13=Forester Sisters - Dixie Man
TTITLE14=Patty Loveless - It´s What Wou Don't Do
TTITLE15=Tammy Wynette - Stand By Your Man
EXTD=YEAR: 1991
EXTT0=
EXTT1=
EXTT2=
EXTT3=
EXTT4=
EXTT5=
EXTT6=
EXTT7=
EXTT8=
EXTT9=
EXTT10=
EXTT11=
EXTT12=
EXTT13=
EXTT14=
EXTT15=
PLAYORDER=
